<svg width="144" height="157" viewBox="0 0 144 157" fill="none" xmlns="http://www.w3.org/2000/svg">
<path d="M78.7001 151.438C77.1078 151.119 73.6365 150.864 72.49 152.395C71.0566 154.307 75.834 155.742 78.2226 154.785C80.1335 154.02 79.3371 152.235 78.7001 151.438Z" fill="black"/>
<path d="M97.8087 151.916C99.2421 151.438 102.395 150.864 103.541 152.395C104.975 154.307 102.586 155.263 101.153 155.263C99.7195 155.263 97.3312 154.785 97.8087 151.916Z" fill="black"/>
<path d="M77.267 141.398L78.7001 151.438M78.7001 151.438C77.1078 151.119 73.6365 150.864 72.49 152.395C71.0566 154.307 75.834 155.742 78.2226 154.785C80.1335 154.02 79.3372 152.235 78.7001 151.438ZM100.675 140.919L97.8087 151.916M97.8087 151.916C99.2421 151.438 102.395 150.864 103.541 152.395C104.975 154.307 102.586 155.263 101.153 155.263C99.7196 155.263 97.3312 154.785 97.8087 151.916Z" stroke="black"/>
<path d="M38.7444 114.548C41.3083 120.198 50.5385 138.177 77.2031 142.286C103.868 146.395 120.276 134.581 123.353 132.013C126.43 129.444 145.403 115.575 143.865 90.4056C142.326 65.2359 127.968 48.7985 120.276 40.0663C113.151 31.9762 102.504 15.9506 97.7143 3.01721C100.278 16.223 107.765 45.6137 117.2 57.5308C128.994 72.4274 130.02 92.9739 129.507 97.0833C129.043 100.794 125.404 111.98 119.764 118.144C114.123 124.308 96.1757 139.061 72.0754 133.554C52.7946 129.147 41.8211 119.048 38.7444 114.548Z" fill="#8F0002"/>
<path d="M96.689 0C80.1089 12.6704 45.2057 44.381 38.2319 69.8587C29.5146 101.706 36.1809 108.898 38.7448 114.548C41.8215 119.048 52.795 129.147 72.0754 133.553C96.1761 139.061 114.123 124.308 119.764 118.144C125.405 111.98 129.044 100.794 129.507 97.0833C130.02 92.9739 128.994 72.427 117.2 57.5308C107.765 45.6137 100.278 16.223 97.7143 3.01718C97.334 1.99011 96.9909 0.982549 96.689 0Z" fill="#AB0000"/>
<path d="M78.7417 38.4556C76.1934 42.5473 68.7145 46.306 65.831 44.5043C62.9479 42.7026 62.8615 37.9245 65.4094 33.8326C67.9577 29.7408 75.3454 25.8669 78.2289 27.6686C81.1124 29.4703 81.2897 34.3637 78.7417 38.4556Z" fill="white"/>
<path d="M56.1856 57.8423C58.1714 59.57 61.6406 58.826 63.9345 56.1803C66.2284 53.5345 66.4779 49.9895 64.4921 48.2615C62.5063 46.5338 59.0371 47.2778 56.7432 49.9235C54.4492 52.5693 54.1998 56.1146 56.1856 57.8423Z" fill="white"/>
<path d="M120.539 122.602C120.539 121.439 120.83 115.139 120.539 114.751C120.249 114.364 118.797 113.007 117.538 114.751C116.957 116.593 117.538 119.5 117.151 119.21C116.763 118.919 113.568 118.337 112.504 119.791C111.438 121.245 110.857 124.153 112.504 125.412C114.149 126.672 115.989 127.06 117.538 126.382C119.087 125.703 120.516 123.668 120.539 122.602Z" fill="black"/>
<path d="M131.093 110.002C133.061 114.493 133.707 123.3 120.539 122.602M120.539 122.602C120.539 121.439 120.83 115.139 120.539 114.751C120.249 114.364 118.797 113.007 117.538 114.751C116.957 116.593 117.538 119.5 117.151 119.21C116.763 118.919 113.568 118.337 112.504 119.791C111.438 121.245 110.857 124.153 112.504 125.412C114.149 126.672 115.989 127.06 117.538 126.382C119.087 125.703 120.516 123.668 120.539 122.602Z" stroke="black" stroke-width="2" stroke-linecap="round"/>
<path d="M70.3873 110.681C73.2213 110.681 75.5187 109.205 75.5187 107.386C75.5187 105.566 73.2213 104.09 70.3873 104.09C67.5533 104.09 65.2559 105.566 65.2559 107.386C65.2559 109.205 67.5533 110.681 70.3873 110.681Z" fill="#FBADAD"/>
<path d="M108.437 110.681C111.324 110.681 113.665 109.205 113.665 107.386C113.665 105.566 111.324 104.09 108.437 104.09C105.549 104.09 103.209 105.566 103.209 107.386C103.209 109.205 105.549 110.681 108.437 110.681Z" fill="#FBADAD"/>
<path fill-rule="evenodd" clip-rule="evenodd" d="M93.4209 106.134C94.9022 104.879 95.8505 103.194 95.8505 102.16C95.8505 100.006 94.8005 100.271 93.0666 100.708C92.1572 100.938 91.0596 101.215 89.8271 101.215C88.6519 101.215 87.4999 100.963 86.4825 100.741C84.3975 100.285 82.877 99.9534 82.877 102.16C82.877 103.229 83.8912 104.995 85.4603 106.261C86.7469 104.687 90.1203 102.49 93.4209 106.134Z" fill="black"/>
<path d="M85.4604 106.261C86.5465 107.137 87.8984 107.773 89.3637 107.773C90.8991 107.773 92.31 107.075 93.421 106.134C90.1205 102.49 86.7471 104.687 85.4604 106.261Z" fill="#FBADAD"/>
<path d="M70.4001 103.341C73.6924 103.341 76.3614 100.669 76.3614 97.373C76.3614 94.0773 73.6924 91.4055 70.4001 91.4055C67.1077 91.4055 64.4387 94.0773 64.4387 97.373C64.4387 100.669 67.1077 103.341 70.4001 103.341Z" fill="#FBFBFD"/>
<path d="M64.7397 99.2845C64.8944 99.511 65.189 99.8128 65.1269 99.2091C65.0495 98.4543 64.7397 96.794 65.5919 95.5113C66.4441 94.2285 67.6835 92.9454 69.1558 92.4925C70.3335 92.1306 71.7124 92.3417 72.2547 92.4925C73.1586 92.7947 75.1216 93.8207 75.7413 95.5113C75.8655 95.934 75.9481 96.1403 75.9738 96.1903C76.0772 96.1903 76.2375 96.1035 76.2062 95.7377C76.0511 93.9263 73.4945 91.2851 71.0153 91.1344C67.916 90.7568 62.7251 93.851 64.7397 99.2845Z" fill="black"/>
<path d="M71.1545 102.283C73.4466 102.283 75.3048 100.254 75.3048 97.7505C75.3048 95.2474 73.4466 93.2183 71.1545 93.2183C68.8623 93.2183 67.0042 95.2474 67.0042 97.7505C67.0042 100.254 68.8623 102.283 71.1545 102.283Z" fill="black"/>
<path d="M69.4188 98.506C70.0856 98.506 70.6261 97.9311 70.6261 97.2219C70.6261 96.5127 70.0856 95.9377 69.4188 95.9377C68.752 95.9377 68.2114 96.5127 68.2114 97.2219C68.2114 97.9311 68.752 98.506 69.4188 98.506Z" fill="#FBFBFD"/>
<path d="M108.328 103.341C105.035 103.341 102.366 100.669 102.366 97.3731C102.366 94.0774 105.035 91.4056 108.328 91.4056C111.62 91.4056 114.289 94.0774 114.289 97.3731C114.289 100.669 111.62 103.341 108.328 103.341Z" fill="#FBFBFD"/>
<path d="M113.988 99.2845C113.833 99.511 113.538 99.8128 113.6 99.2091C113.678 98.4543 113.988 96.794 113.135 95.5113C112.283 94.2285 111.044 92.9454 109.572 92.4925C108.394 92.1306 107.015 92.3417 106.472 92.4925C105.568 92.7947 103.606 93.8207 102.986 95.5113C102.862 95.934 102.779 96.1403 102.753 96.1903C102.65 96.1903 102.49 96.1035 102.521 95.7377C102.676 93.9263 105.233 91.2851 107.712 91.1344C110.811 90.7568 116.002 93.851 113.988 99.2845Z" fill="black"/>
<path d="M107.573 102.283C105.281 102.283 103.422 100.254 103.422 97.7506C103.422 95.2475 105.281 93.2184 107.573 93.2184C109.865 93.2184 111.723 95.2475 111.723 97.7506C111.723 100.254 109.865 102.283 107.573 102.283Z" fill="black"/>
<path d="M109.309 98.506C108.642 98.506 108.101 97.9311 108.101 97.2219C108.101 96.5127 108.642 95.9377 109.309 95.9377C109.976 95.9377 110.516 96.5127 110.516 97.2219C110.516 97.9311 109.976 98.506 109.309 98.506Z" fill="#FBFBFD"/>
<path d="M18.8228 139.074C21.7457 141.221 24.8384 142.707 27.7301 142.678C28.428 142.67 29.1044 142.681 29.7633 142.7C31.3633 142.746 32.8606 142.84 34.3138 142.839C34.9992 142.839 35.6748 142.818 36.3469 142.761C39.2498 142.513 42.0851 141.596 45.3513 138.809C35.1686 134.609 29.36 134.669 18.8228 139.074Z" fill="#EC3700"/>
<path d="M29.7634 142.7C29.1045 142.681 28.4282 142.67 27.7302 142.678C27.7625 145.488 27.7899 151.362 27.827 152.369C27.8838 153.907 29.5632 154.898 30.0539 155.083C30.7883 155.36 33.7897 155.263 34.2171 155.083C34.6445 154.903 36.4439 153.81 36.4439 152.369C36.4439 151.904 36.3793 145.77 36.3471 142.761C35.675 142.818 34.9994 142.839 34.3139 142.839V151.206C34.3139 152.078 33.3457 153.144 32.2807 153.144C31.2157 153.144 30.0539 151.788 29.9571 151.206C29.8796 150.741 29.7957 145.342 29.7634 142.7Z" fill="#FF7247"/>
<path d="M51.6444 95.0906C51.6444 94.3035 51.5056 93.2122 51.1201 92.1694L30.9819 121.216C34.019 121.158 37.1139 121.09 39.8891 121.025L51.814 102.443C51.7526 99.6429 51.6905 96.9777 51.6444 95.0906Z" fill="#F6F2BC"/>
<path d="M9.88184 113.298C9.89395 113.974 9.90533 114.597 9.91556 115.153C9.94134 116.778 10.9021 119.715 14.2093 120.871L36.4037 89.1433C33.2853 89.2017 29.8438 89.2701 26.5283 89.3378L9.88184 113.298Z" fill="#F6F2BC"/>
<path d="M15.7246 89.5661C13.6914 89.9538 9.625 91.6016 9.625 95.0906C9.625 95.7259 9.63142 96.6217 9.64249 97.694L17.524 89.5272C16.889 89.5408 16.2871 89.554 15.7246 89.5661Z" fill="#F6F2BC"/>
<path fill-rule="evenodd" clip-rule="evenodd" d="M9.64258 97.694L17.5241 89.5272C20.117 89.4713 23.2615 89.4046 26.5283 89.3379L9.88179 113.298C9.8006 108.762 9.68595 101.883 9.64258 97.694ZM14.2092 120.871C15.0421 121.162 16.0238 121.34 17.1769 121.355C20.0326 121.394 25.4102 121.322 30.9819 121.216L51.1201 92.1694C50.5087 90.5157 49.2772 88.9846 46.9972 88.9846C45.4537 88.9846 41.3322 89.0513 36.4036 89.1434L14.2092 120.871ZM46.0291 120.871C44.3649 120.915 42.2417 120.969 39.8891 121.025L51.814 102.443C51.9247 107.504 52.0316 113.006 52.0316 115.153C52.0316 115.381 52.0129 115.603 51.9771 115.818L48.2158 120.034C47.4146 120.437 46.6311 120.715 46.0291 120.871Z" fill="#F1EB90"/>
<path d="M48.2158 120.034C49.8939 119.189 51.6493 117.793 51.9772 115.818L48.2158 120.034Z" fill="#F6F2BC"/>
<path d="M55.9042 91.2139C56.8726 92.7644 64.9085 106.818 54.9361 126.88C54.8559 127.005 54.7761 127.13 54.6967 127.254C55.1505 127.48 56.2321 128.029 56.9292 128.417C57.2196 127.919 60.5115 127.281 63.1257 115.153C65.7274 103.081 62.1576 94.7863 58.7689 87.1298C55.1845 79.0311 37.8559 73.8518 37.4687 73.7549C37.1717 73.6806 36.5974 76.3916 36.3066 77.7098C47.7493 79.7744 55.052 89.8488 55.9042 91.2139Z" fill="#8F0002"/>
<path fill-rule="evenodd" clip-rule="evenodd" d="M54.9361 126.88C64.9085 106.818 56.8726 92.7644 55.9042 91.2139C55.052 89.8488 47.7493 79.7744 36.3066 77.7098C34.749 77.4288 33.1146 77.2965 31.4091 77.3545C17.1768 77.839 10.0122 84.2357 7.20445 88.9846C4.39673 93.7335 -1.21878 104.588 3.52534 117.188C7.01083 125.62 6.52675 125.329 7.3981 126.88C9.62948 130.18 13.9946 135.529 18.8227 139.074C29.36 134.669 35.1685 134.609 45.3512 138.809C48.0716 136.487 51.0908 132.866 54.6967 127.254C54.7761 127.13 54.8559 127.005 54.9361 126.88ZM9.62493 95.0906C9.62493 91.6015 13.6913 89.9537 15.7245 89.5661C16.287 89.5539 16.889 89.5407 17.5239 89.5272C20.1168 89.4713 23.2614 89.4046 26.5281 89.3379C29.8436 89.2701 33.2851 89.2017 36.4035 89.1434C41.3321 89.0513 45.4536 88.9846 46.997 88.9846C49.277 88.9846 50.5085 90.5157 51.1199 92.1694C51.5054 93.2122 51.6442 94.3035 51.6442 95.0906C51.6903 96.9777 51.7525 99.6429 51.8139 102.443C51.9246 107.504 52.0314 113.006 52.0314 115.153C52.0314 115.381 52.0127 115.603 51.977 115.818C51.6491 117.793 49.8936 119.189 48.2156 120.034C47.4144 120.437 46.6309 120.715 46.0289 120.871C44.3647 120.915 42.2415 120.969 39.8889 121.025C37.1137 121.09 34.0188 121.158 30.9818 121.216C25.41 121.322 20.0325 121.394 17.1768 121.355C16.0237 121.34 15.0419 121.162 14.2091 120.871C10.9019 119.715 9.94114 116.778 9.91536 115.153C9.90513 114.598 9.89375 113.974 9.88164 113.298C9.80044 108.762 9.6858 101.883 9.64242 97.694C9.63135 96.6217 9.62493 95.7259 9.62493 95.0906ZM29.4728 131.629V127.461C29.2791 126.686 28.6014 127.073 28.5046 127.073C28.4078 127.073 25.8905 128.818 25.2127 129.303C24.6706 129.69 24.9869 130.046 25.2127 130.175C25.8582 130.466 27.3621 131.183 28.2141 131.726C29.0661 132.268 29.4082 131.887 29.4728 131.629ZM33.3455 131.629C33.2681 131.551 33.2487 128.689 33.2487 127.267C33.2471 126.492 34.4105 126.88 34.5074 126.977C34.6042 127.073 37.0246 128.527 37.6054 128.915C38.1866 129.303 37.7022 129.787 37.6054 129.884C37.5086 129.981 35.0884 131.435 34.5074 131.823C33.9264 132.21 33.4424 131.726 33.3455 131.629Z" fill="#FF7247"/>
<path d="M29.473 127.461V131.629C29.4084 131.887 29.0663 132.268 28.2143 131.726C27.3623 131.183 25.8584 130.466 25.2129 130.175C24.987 130.046 24.6708 129.69 25.2129 129.303C25.8907 128.818 28.408 127.073 28.5048 127.073C28.6016 127.073 29.2793 126.686 29.473 127.461Z" fill="#4A71A0"/>
<path d="M33.2488 127.267C33.2488 128.689 33.2681 131.551 33.3456 131.629C33.4424 131.726 33.9265 132.21 34.5074 131.823C35.0884 131.435 37.5087 129.981 37.6055 129.884C37.7023 129.787 38.1867 129.303 37.6055 128.915C37.0246 128.527 34.6043 127.073 34.5074 126.977C34.4106 126.88 33.2472 126.492 33.2488 127.267Z" fill="#4A71A0"/>
<path d="M8.77687 120.221C10.278 122.646 10.6728 125.038 8.17301 126.589C6.1398 127.85 4.16242 126.44 2.66136 124.015C1.16028 121.59 1.44967 118.817 3.13843 117.769C4.82718 116.722 7.2758 117.797 8.77687 120.221Z" fill="black"/>
<mask id="mask0_114_3204" style="mask-type:luminance" maskUnits="userSpaceOnUse" x="17" y="97" width="31" height="19">
<path d="M46.4682 97.2569L17.6963 98.5304L18.4627 115.881L47.2346 114.607L46.4682 97.2569Z" fill="white"/>
</mask>
<g mask="url(#mask0_114_3204)">
<path d="M22.8795 114.554C21.528 114.614 20.6922 113.785 20.6462 112.743C20.6212 112.177 20.7351 111.739 20.9799 111.25L25.6889 101.767L25.685 101.678L19.6808 101.944C18.6173 101.991 17.8211 101.304 17.7741 100.24C17.7271 99.1757 18.4606 98.4431 19.5241 98.3962L27.478 98.044C28.9957 97.977 30.2448 98.8659 30.3119 100.385C30.3481 101.205 30.1266 101.97 29.5991 103.093L24.912 113.076C24.4253 114.12 23.8876 114.51 22.8795 114.554ZM39.3264 113.993C36.5901 114.114 34.0665 113.015 33.1661 111.478C32.9616 111.12 32.8337 110.737 32.8166 110.349C32.7666 109.218 33.424 108.522 34.5983 108.471C35.4402 108.433 36.0165 108.663 36.6203 109.27C37.3181 109.983 37.9725 110.476 39.1134 110.425C40.4427 110.367 41.3966 109.347 41.34 108.061C41.2834 106.786 40.3029 105.941 38.9624 106C38.1536 106.036 37.5842 106.461 37.1356 106.859C36.5693 107.361 36.0811 107.616 35.0842 107.66C33.5222 107.729 32.7768 106.685 32.8111 105.45L32.9492 100.035C32.9905 98.4556 33.8478 97.762 35.2656 97.6995L42.6103 97.3744C43.7072 97.3257 44.4355 97.9822 44.4834 99.0687C44.5316 100.155 43.8748 100.873 42.7672 100.922L36.8292 101.185L36.7462 104.832L36.8351 104.828C37.3746 103.727 38.6377 102.926 40.3327 102.851C43.3459 102.718 45.5996 104.74 45.7329 107.755C45.8925 111.37 43.2703 113.818 39.3264 113.993Z" fill="#861800"/>
</g>
</svg>
