<svg width="120" height="130" viewBox="0 0 120 130" fill="none" xmlns="http://www.w3.org/2000/svg">
<g clip-path="url(#clip0_655_4831)">
<path d="M30.7266 95.3617C32.8765 100.047 40.5939 114.916 62.8379 118.413C62.9252 118.426 63.0129 118.44 63.1007 118.454C63.4353 118.505 63.7678 118.553 64.0986 118.598C71.4917 119.608 77.9221 119.181 83.2939 118.091C83.932 117.962 84.555 117.824 85.163 117.676C94.5703 115.406 100.364 111.211 101.95 109.901C103.668 108.483 111.274 102.925 115.822 93.2279C116.029 92.7882 116.228 92.3392 116.421 91.8825C116.763 91.0734 117.082 90.2379 117.375 89.3749C117.47 89.0927 117.563 88.8079 117.653 88.5196C118.866 84.6242 119.522 80.2053 119.216 75.2631C117.921 54.3091 105.835 40.6249 99.3599 33.3552C93.3616 26.6202 84.3989 13.2789 80.3669 2.51172C82.5252 13.5056 88.8275 37.9736 96.77 47.8946C106.698 60.2959 107.561 77.4012 107.13 80.8223C106.739 83.9114 103.676 93.2236 98.9283 98.3552C94.1801 103.487 79.072 115.769 58.7842 111.184C42.554 107.516 33.3166 99.1078 30.7266 95.3617Z" fill="#8F0002"/>
<path d="M79.5035 0C65.5468 10.5482 36.1654 36.9474 30.2949 58.1579C28.9782 62.9156 28.0784 67.0123 27.5007 70.5592C27.4685 70.7571 27.4373 70.9533 27.4071 71.1479C27.2536 72.1347 27.1256 73.078 27.0208 73.9803C26.9734 74.3889 26.9307 74.7891 26.8926 75.1811C25.6721 87.7346 29.1365 91.8963 30.7266 95.3618C33.3166 99.1079 42.554 107.516 58.7842 111.184C79.072 115.769 94.1801 103.487 98.9283 98.3553C103.676 93.2237 106.739 83.9115 107.13 80.8224C107.561 77.4013 106.698 60.2961 96.77 47.8947C88.8275 37.9737 82.5252 13.5057 80.3669 2.51182C80.0467 1.65678 79.7576 0.817977 79.5035 0Z" fill="#AB0000"/>
<path d="M26.8928 75.1809C26.9309 74.789 26.9736 74.3888 27.021 73.9801C27.1258 73.0779 27.2538 72.1346 27.4073 71.1478C27.4375 70.9532 27.4687 70.757 27.5009 70.5591C25.8872 68.8486 23.0052 64.9143 24.3865 62.8617C26.1132 60.2959 25.6815 58.1578 24.3865 57.7301V52.1709C24.3865 49.6051 20.7615 49.6051 20.7615 52.1709V55.592C19.8424 55.3069 17.7787 55.4209 16.8766 58.1578C15.749 61.5788 18.6032 63.2893 19.4665 63.2893C19.4665 68.5735 24.4353 73.5105 26.8813 75.3C26.8851 75.2604 26.8889 75.2207 26.8928 75.1809Z" fill="black"/>
<path d="M117.375 89.3748C117.082 90.2378 116.763 91.0733 116.422 91.8824C116.228 92.3391 116.029 92.7881 115.822 93.2278C116.077 95.9381 116.243 101.52 114.862 102.204C113.136 103.059 111.409 103.795 111.409 106.908C111.409 108.618 112.801 110.329 116.422 109.473C120.64 108.105 119.268 105.482 118.056 104.342C120.818 96.4735 118.938 90.5149 117.653 88.5195C117.563 88.8078 117.47 89.0926 117.375 89.3748Z" fill="black"/>
<path d="M83.2939 118.092C82.507 120.778 81.0193 126.408 81.3646 127.434C81.7963 128.717 86.1128 130 88.2715 128.29C89.1348 127.434 87.4082 124.441 83.5229 125.296C83.8682 124.612 84.7601 119.931 85.1629 117.677C84.555 117.824 83.9319 117.962 83.2939 118.092Z" fill="black"/>
<path d="M63.1007 118.454C63.0128 118.44 62.9252 118.427 62.8379 118.413L64.0985 125.296C62.3719 124.869 59.005 124.869 59.3503 128.29C59.782 129.145 62.3719 130 65.8252 128.29C66.1705 128.29 65.969 126.579 65.8252 125.724L64.0985 118.599C63.7678 118.553 63.4353 118.505 63.1007 118.454Z" fill="black"/>
<path d="M64.3164 32.0147C62.1714 35.4212 55.8757 38.5503 53.4485 37.0502C51.0214 35.5503 50.9486 31.5726 53.0936 28.1661C55.2385 24.7596 61.4576 21.5345 63.8848 23.0345C66.3119 24.5345 66.4615 28.6082 64.3164 32.0147Z" fill="white"/>
<path d="M45.3291 48.154C47.0007 49.5924 49.9212 48.9729 51.8521 46.7705C53.7831 44.568 53.9933 41.6165 52.3217 40.1781C50.65 38.7398 47.7296 39.3592 45.7986 41.5617C43.8677 43.7642 43.6574 46.7156 45.3291 48.154Z" fill="white"/>
<path d="M44.8921 74.4079C47.2264 70.3455 52.2362 69.3733 55.2518 74.4079" stroke="black" stroke-width="3" stroke-linecap="round"/>
<path d="M80.2878 74.4079C82.6221 70.3455 87.632 69.3733 90.6476 74.4079" stroke="black" stroke-width="3" stroke-linecap="round"/>
<path d="M50.5036 86.2642C53.1259 86.2642 55.2518 84.924 55.2518 83.2708C55.2518 81.6175 53.1259 80.2773 50.5036 80.2773C47.8812 80.2773 45.7554 81.6175 45.7554 83.2708C45.7554 84.924 47.8812 86.2642 50.5036 86.2642Z" fill="#FBADAD"/>
<path d="M85.8993 86.2642C88.5217 86.2642 90.6475 84.924 90.6475 83.2708C90.6475 81.6175 88.5217 80.2773 85.8993 80.2773C83.277 80.2773 81.1511 81.6175 81.1511 83.2708C81.1511 84.924 83.277 86.2642 85.8993 86.2642Z" fill="#FBADAD"/>
<path fill-rule="evenodd" clip-rule="evenodd" d="M71.9809 82.2087C73.361 81.0616 74.2445 79.5209 74.2445 78.5762C74.2445 76.6066 73.2661 76.8488 71.6511 77.2487C70.8038 77.4584 69.7814 77.7115 68.633 77.7115C67.5383 77.7115 66.4652 77.4815 65.5172 77.2783C63.575 76.862 62.1582 76.5584 62.1582 78.5762C62.1582 79.5532 63.1032 81.1677 64.565 82.3249C65.7635 80.8857 68.9063 78.8773 71.9809 82.2087Z" fill="black"/>
<path d="M64.5652 82.325C65.577 83.1259 66.8364 83.7079 68.2015 83.7079C69.6319 83.7079 70.9462 83.0691 71.9811 82.2088C68.9065 78.8773 65.7636 80.8858 64.5652 82.325Z" fill="#FBADAD"/>
<path d="M4.76976 19.3759C10.8242 13.7884 20.3414 14.1227 25.9773 20.1226C31.0372 25.5036 31.2806 33.641 26.9063 39.2906L28.6366 43.5791C28.9322 44.3112 28.1636 45.0208 27.4468 44.6772L23.251 42.6627C17.2508 46.5838 9.07593 45.766 4.01968 40.3862C-1.62042 34.3888 -1.28418 24.9633 4.76976 19.3759ZM4.87428 39.594C7.36151 42.2388 10.6659 43.682 14.0494 43.9174L15.6304 43.932C18.7958 43.7898 21.9303 42.5833 24.4244 40.2819C30.0058 35.1304 30.3184 26.4433 25.1185 20.9141C22.7954 18.4428 19.7533 17.0177 16.6095 16.6539L15.0291 16.5617C11.6371 16.5529 8.23775 17.7623 5.5684 20.2263C-0.0125794 25.3777 -0.325597 34.0652 4.87428 39.594Z" fill="#2CDB79"/>
<path d="M11.9746 31.2711C11.2621 31.9411 10.1297 31.8879 9.48424 31.1542L8.12144 29.6048C7.46436 28.8578 6.30604 28.8184 5.59879 29.519L5.4874 29.6294C4.83299 30.2777 4.81093 31.3219 5.43739 31.9968L9.47449 36.3458C10.1295 37.0515 11.2419 37.0861 11.9404 36.4226L22.9 26.0115C23.5985 25.3479 23.6102 24.2453 22.9259 23.5673L22.7722 23.4151C22.1103 22.7593 21.0416 22.7456 20.3626 23.3839L11.9746 31.2711Z" fill="#2CDB79"/>
</g>
<defs>
<clipPath id="clip0_655_4831">
<rect width="120" height="130" fill="white"/>
</clipPath>
</defs>
</svg>
