<svg width="139" height="152" viewBox="0 0 139 152" fill="none" xmlns="http://www.w3.org/2000/svg">
<g clip-path="url(#clip0_655_4921)">
<path d="M35.5918 111.5C38.0821 116.978 47.0215 134.363 72.7874 138.452C72.8886 138.468 72.9901 138.484 73.0919 138.5C73.4794 138.56 73.8646 138.616 74.2477 138.669C82.8114 139.849 90.26 139.35 96.4823 138.076C97.2214 137.925 97.9431 137.763 98.6473 137.591C109.544 134.936 116.255 130.031 118.092 128.5C120.082 126.842 128.892 120.343 134.161 109.005C134.4 108.491 134.631 107.966 134.855 107.432C135.251 106.486 135.62 105.509 135.959 104.5C136.07 104.17 136.177 103.837 136.281 103.5C137.687 98.9453 138.446 93.7786 138.092 88C136.592 63.5 122.592 47.5 115.092 39C108.144 31.1253 97.7623 15.5262 93.0919 2.93689C95.5919 15.7913 102.892 44.4 112.092 56C123.592 70.5 124.592 90.5 124.092 94.5C123.64 98.1119 120.092 109 114.592 115C109.092 121 91.5919 135.361 68.0919 130C49.2919 125.711 38.5919 115.88 35.5918 111.5Z" fill="#8F0002"/>
<path d="M92.0918 0C75.9252 12.3333 41.8918 43.2 35.0918 68C33.5666 73.5628 32.5243 78.3528 31.8552 82.5C31.8179 82.7314 31.7817 82.9608 31.7467 83.1883C31.569 84.3421 31.4207 85.4451 31.2993 86.5C31.2444 86.9778 31.1949 87.4457 31.1508 87.904C29.7371 102.582 33.75 107.448 35.5918 111.5C38.5919 115.88 49.2919 125.711 68.0919 130C91.5919 135.361 109.092 121 114.592 115C120.092 109 123.64 98.1119 124.092 94.5C124.592 90.5 123.592 70.5 112.092 56C102.892 44.4 95.5919 15.7913 93.0919 2.9369C92.721 1.93716 92.3861 0.956404 92.0918 0Z" fill="#AB0000"/>
<path d="M31.1507 87.904C31.1948 87.4457 31.2443 86.9778 31.2992 86.5C31.4206 85.4451 31.5689 84.3421 31.7466 83.1883C31.7816 82.9608 31.8178 82.7314 31.8551 82.5C29.9859 80.5 26.6476 75.9 28.2476 73.5C30.2476 70.5 29.7476 68 28.2476 67.5V61C28.2476 58 24.0486 58 24.0486 61V65C22.984 64.6667 20.5935 64.8 19.5486 68C18.2425 72 21.5486 74 22.5486 74C22.5486 80.1784 28.3041 85.9509 31.1374 88.0432C31.1418 87.9969 31.1462 87.9505 31.1507 87.904Z" fill="black"/>
<path d="M135.959 104.5C135.62 105.509 135.251 106.486 134.855 107.432C134.631 107.966 134.4 108.491 134.161 109.005C134.456 112.174 134.648 118.7 133.049 119.5C131.049 120.5 129.049 121.36 129.049 125C129.049 127 130.661 129 134.855 128C139.741 126.4 138.152 123.333 136.748 122C139.948 112.8 137.77 105.833 136.281 103.5C136.177 103.837 136.07 104.17 135.959 104.5Z" fill="black"/>
<path d="M96.4824 138.076C95.5709 141.217 93.8477 147.8 94.2477 149C94.7477 150.5 99.7477 152 102.248 150C103.248 149 101.248 145.5 96.7477 146.5C97.1477 145.7 98.1808 140.227 98.6474 137.591C97.9432 137.763 97.2215 137.925 96.4824 138.076Z" fill="black"/>
<path d="M73.092 138.5C72.9902 138.484 72.8887 138.468 72.7875 138.452L74.2478 146.5C72.2478 146 68.3478 146 68.7478 150C69.2478 151 72.2478 152 76.2478 150C76.6478 150 76.4144 148 76.2478 147L74.2478 138.669C73.8647 138.616 73.4795 138.56 73.092 138.5Z" fill="black"/>
<path d="M74.4999 37.4323C72.0153 41.4153 64.7228 45.0739 61.9113 43.32C59.0998 41.5662 59.0155 36.9154 61.5001 32.9324C63.9847 28.9494 71.1884 25.1786 73.9999 26.9324C76.8114 28.6862 76.9846 33.4493 74.4999 37.4323Z" fill="white"/>
<path d="M52.5063 56.3031C54.4426 57.9849 57.8255 57.2606 60.0622 54.6854C62.2989 52.1102 62.5424 48.6592 60.6061 46.9774C58.6698 45.2957 55.2869 46.0199 53.0502 48.5951C50.8135 51.1704 50.57 54.6213 52.5063 56.3031Z" fill="white"/>
<path d="M52 87C54.7039 82.2501 60.5069 81.1134 64 87" stroke="black" stroke-width="3" stroke-linecap="round"/>
<path d="M93 87C95.7039 82.2501 101.507 81.1134 105 87" stroke="black" stroke-width="3" stroke-linecap="round"/>
<path d="M58.5 100.863C61.5376 100.863 64 99.2959 64 97.3629C64 95.4299 61.5376 93.8629 58.5 93.8629C55.4624 93.8629 53 95.4299 53 97.3629C53 99.2959 55.4624 100.863 58.5 100.863Z" fill="#FBADAD"/>
<path d="M99.5 100.863C102.538 100.863 105 99.2959 105 97.3629C105 95.4299 102.538 93.8629 99.5 93.8629C96.4624 93.8629 94 95.4299 94 97.3629C94 99.2959 96.4624 100.863 99.5 100.863Z" fill="#FBADAD"/>
<path fill-rule="evenodd" clip-rule="evenodd" d="M83.378 96.121C84.9766 94.7798 86 92.9784 86 91.8738C86 89.5709 84.8667 89.8541 82.9959 90.3216C82.0145 90.5668 80.8302 90.8627 79.5 90.8627C78.232 90.8627 76.9889 90.5938 75.8908 90.3562C73.6411 89.8695 72 89.5145 72 91.8738C72 93.0161 73.0946 94.9038 74.7879 96.2569C76.1761 94.5741 79.8166 92.2258 83.378 96.121Z" fill="black"/>
<path d="M74.7881 96.2569C75.9601 97.1934 77.4189 97.8738 79.0002 97.8738C80.657 97.8738 82.1794 97.1269 83.3782 96.121C79.8168 92.2258 76.1763 94.5741 74.7881 96.2569Z" fill="#FBADAD"/>
<path d="M5.72982 22.6641C13.0024 16.1185 24.4348 16.51 31.2049 23.539C37.2835 29.8428 37.5756 39.3756 32.3208 45.9942L34.3994 51.0184C34.7545 51.876 33.8312 52.7071 32.9706 52.3044L27.9302 49.9446C20.7224 54.5382 10.9025 53.5798 4.82834 47.2777C-1.94668 40.2517 -1.54277 29.2098 5.72982 22.6641ZM5.85542 46.3497C8.84302 49.448 12.8124 51.1389 16.8768 51.4142L18.7761 51.4318C22.5786 51.265 26.3434 49.8515 29.3398 47.1555C36.0443 41.1206 36.4198 30.9436 30.1734 24.4661C27.3829 21.5711 23.7286 19.9016 19.9518 19.4754L18.0535 19.3673C13.9789 19.357 9.8954 20.7739 6.68899 23.6603C-0.0150146 29.6952 -0.390965 39.8727 5.85542 46.3497Z" fill="#AB0000"/>
<g clip-path="url(#clip1_655_4921)">
<path d="M7.82383 27.8563L9.90995 25.8408L18.1805 33.8313L26.451 25.8408L28.5371 27.8563L20.2666 35.8468L28.5371 43.8373L26.451 45.8528L18.1805 37.8623L9.90995 45.8528L7.82383 43.8373L16.0943 35.8468L7.82383 27.8563Z" fill="#AB0000"/>
</g>
</g>
<defs>
<clipPath id="clip0_655_4921">
<rect width="139" height="152" fill="white"/>
</clipPath>
<clipPath id="clip1_655_4921">
<rect width="35.5085" height="34.3064" fill="white" transform="matrix(-1 0 0 1 35.9346 18.6936)"/>
</clipPath>
</defs>
</svg>
