<svg width="277" height="242" viewBox="0 0 277 242" fill="none" xmlns="http://www.w3.org/2000/svg">
<g clip-path="url(#clip0_263_3355)">
<path d="M92.2036 234.039C89.5503 233.509 83.7663 233.084 81.8559 235.632C79.468 238.816 87.4278 241.204 91.4077 239.612C94.5916 238.338 93.265 235.366 92.2036 234.039ZM124.043 234.836C126.431 234.039 131.684 233.084 133.594 235.632C135.982 238.816 132.003 240.408 129.615 240.408C127.227 240.408 123.247 239.612 124.043 234.836Z" fill="black"/>
<path d="M89.8157 217.322L92.2036 234.039M92.2036 234.039C89.5503 233.509 83.7663 233.084 81.8559 235.632C79.468 238.816 87.4278 241.204 91.4077 239.612C94.5916 238.338 93.265 235.366 92.2036 234.039ZM128.819 216.526L124.043 234.836M124.043 234.836C126.431 234.039 131.684 233.084 133.594 235.632C135.982 238.816 132.003 240.408 129.615 240.408C127.227 240.408 123.247 239.612 124.043 234.836Z" stroke="black" stroke-width="2"/>
<path d="M8.28534 138.513C11.4693 151.25 24.0976 159.476 31.6057 161.599C31.365 160.36 31.1579 159.038 30.9936 157.618C21.0666 158.414 11.4693 140.901 10.6733 138.513C9.76573 135.79 17.8367 129.757 14.6532 128.961C13.5611 128.687 13.0609 131.349 11.4693 128.961C9.2618 125.648 6.6931 122.592 1.91754 127.368C-3.39214 132.679 3.50943 138.513 8.28534 138.513Z" fill="black"/>
<path d="M38.1613 178.365C42.1663 187.163 56.5842 215.157 98.236 221.556C139.888 227.954 165.52 209.558 170.326 205.558C170.578 205.348 170.9 205.089 171.282 204.781C176.322 200.721 191.881 188.184 198.948 167.171C200.274 163.224 201.303 158.979 201.904 154.434C202.323 151.267 202.536 147.954 202.5 144.496C202.487 143.273 202.442 142.031 202.366 140.772C202.286 139.474 202.185 138.19 202.062 136.922C198.488 99.8973 177.137 75.5344 165.52 62.3876C154.389 49.7906 137.758 24.837 130.276 4.69812C134.787 60.3437 158.399 61.2961 159.195 66.0724C151.236 67.6645 151.236 71.6447 150.44 73.2368C149.644 74.829 150.44 119.408 150.44 126.572C150.44 133.737 183.075 128.961 183.871 130.553C184.508 131.826 181.515 144.828 179.937 151.17C179.214 156.948 173.529 174.366 164.718 183.963C155.908 193.562 127.873 216.534 90.2261 207.959C60.1086 201.097 42.9672 185.37 38.1613 178.365Z" fill="#8F0002"/>
<path d="M128.674 0C102.775 19.7294 48.2538 69.1061 37.3602 108.778C30.827 132.571 29.8253 147.526 30.9936 157.618C31.1579 159.038 31.365 160.36 31.6057 161.599C33.2213 169.906 36.348 174.382 38.1613 178.365C42.9672 185.37 60.1086 201.097 90.2261 207.959C127.873 216.534 155.908 193.562 164.718 183.963C173.529 174.366 179.214 156.948 179.937 151.17C181.515 144.828 184.508 131.826 183.871 130.553C183.075 128.961 150.44 133.737 150.44 126.572C150.44 119.408 149.644 74.8289 150.44 73.2368C151.236 71.6447 151.236 67.6645 159.195 66.0724C158.399 61.2961 134.787 60.3437 130.276 4.69811C129.682 3.09884 129.145 1.52994 128.674 0Z" fill="#AB0000"/>
<path fill-rule="evenodd" clip-rule="evenodd" d="M189.443 161.599C186.259 162.756 186.895 167.967 192.626 164.783C199.79 160.803 211.73 148.862 211.73 135.329C215.288 133.194 216.3 131.06 217.045 129.493C217.133 129.307 217.217 129.129 217.302 128.961C217.744 128.076 215.729 128.42 213.715 128.764C212.104 129.039 210.491 129.314 210.138 128.961C209.95 128.773 209.718 128.585 209.472 128.386C208.68 127.744 207.75 126.993 207.75 125.776C207.75 124.184 202.178 123.388 202.974 127.368C203.77 131.349 207.75 134.533 209.342 134.533C210.934 134.533 206.954 155.23 189.443 161.599Z" fill="black"/>
<path d="M202.974 127.368C202.178 123.388 207.75 124.184 207.75 125.776C207.75 126.993 208.68 127.744 209.473 128.386C209.718 128.585 209.95 128.773 210.138 128.961C210.491 129.314 212.104 129.039 213.715 128.764C215.729 128.42 217.744 128.076 217.302 128.961H266.117C271.29 128.961 275.523 124.844 275.666 119.673L276.734 81.2141C276.881 75.9324 272.713 71.5347 267.431 71.3994L162.625 68.7118C157.255 68.574 152.828 72.8896 152.828 78.2612V117.816C152.828 123.092 157.104 127.368 162.379 127.368H202.974Z" fill="#FFE2D0"/>
<path d="M164.261 108.245V93.4273C164.261 91.4061 165.442 90.2244 167.448 90.2244H173.2C179.496 90.2244 182.916 93.9404 182.916 100.828C182.916 107.731 179.496 111.447 173.2 111.447H167.448C165.442 111.447 164.261 110.266 164.261 108.245ZM170.385 106.674H172.127C175.282 106.674 176.635 104.917 176.635 100.828C176.635 96.739 175.282 94.9821 172.127 94.9821H170.385V106.674ZM195.586 109.473C194.901 110.794 193.3 111.618 191.356 111.618C188.093 111.618 185.869 109.582 185.869 106.581C185.869 103.425 188.263 101.512 192.197 101.497H195.6V100.455C195.6 99.351 194.823 98.7291 193.564 98.7291C192.491 98.7291 191.682 99.1956 190.843 99.6309C190.285 99.9108 189.692 100.128 188.807 100.128C187.548 100.128 186.786 99.2889 186.786 98.1695C186.786 97.1278 187.5 96.0705 189.15 95.3397C190.299 94.8111 191.885 94.5002 193.953 94.5002C198.787 94.5002 201.54 96.708 201.54 100.548V108.493C201.54 110.515 200.499 111.603 198.663 111.603C197.186 111.603 196.145 110.872 195.88 109.566V109.473H195.586ZM191.682 106.099C191.682 107.032 192.475 107.716 193.564 107.716C194.699 107.716 195.6 106.97 195.6 106.037V104.513H193.72C192.491 104.513 191.682 105.135 191.682 106.099ZM213.214 108.353C213.214 110.452 212.172 111.603 210.26 111.603C208.347 111.603 207.276 110.452 207.276 108.353V99.2267H206.901C205.348 99.2267 204.493 98.4338 204.493 97.0345C204.493 95.6352 205.348 94.7955 206.901 94.7955H207.276V93.8627C207.276 89.8669 209.25 88.3276 213.12 88.3276C214.333 88.3276 215.297 88.5452 215.966 88.9184C216.697 89.3383 217.069 89.9601 217.069 90.6909C217.069 91.6704 216.433 92.3235 215.546 92.3235C215.157 92.3235 214.815 92.2768 214.411 92.2768C213.556 92.2768 213.043 92.6188 213.043 93.6917V94.7955H214.209C215.764 94.7955 216.619 95.6196 216.619 97.0033C216.619 98.4026 215.764 99.2267 214.209 99.2267H213.214V108.353ZM221.452 106.939V99.4289H221.094C219.54 99.4289 218.685 98.6204 218.685 97.2211C218.685 95.8216 219.54 95.0132 221.094 95.0132H221.638V93.5672C221.638 91.546 222.649 90.4421 224.499 90.4421C226.349 90.4421 227.344 91.546 227.344 93.5672V95.0132H228.293C229.846 95.0132 230.703 95.8216 230.703 97.2211C230.703 98.6204 229.846 99.4289 228.293 99.4289H227.438V105.835C227.438 107.016 227.764 107.498 228.651 107.498C229.069 107.498 229.318 107.405 229.816 107.405C230.655 107.405 231.262 108.027 231.262 109.006C231.262 109.83 230.889 110.515 230.22 111.028C229.444 111.587 228.308 111.898 226.909 111.898C223.24 111.898 221.452 110.281 221.452 106.939ZM243.34 109.473C242.657 110.794 241.055 111.618 239.111 111.618C235.846 111.618 233.624 109.582 233.624 106.581C233.624 103.425 236.018 101.512 239.95 101.497H243.356V100.455C243.356 99.351 242.579 98.7291 241.32 98.7291C240.247 98.7291 239.438 99.1956 238.599 99.6309C238.039 99.9108 237.448 100.128 236.561 100.128C235.302 100.128 234.541 99.2889 234.541 98.1695C234.541 97.1278 235.256 96.0705 236.903 95.3397C238.054 94.8111 239.64 94.5002 241.708 94.5002C246.543 94.5002 249.294 96.708 249.294 100.548V108.493C249.294 110.515 248.252 111.603 246.419 111.603C244.941 111.603 243.9 110.872 243.636 109.566V109.473H243.34ZM239.438 106.099C239.438 107.032 240.231 107.716 241.32 107.716C242.455 107.716 243.356 106.97 243.356 106.037V104.513H241.474C240.247 104.513 239.438 105.135 239.438 106.099ZM259.414 108.353C259.414 110.421 258.326 111.603 256.367 111.603C254.409 111.603 253.476 110.421 253.476 108.353V97.8584C253.476 95.744 254.471 94.6089 256.383 94.6089C258.092 94.6089 259.057 95.5107 259.211 97.2832V97.3455H259.508C259.942 95.5263 261.109 94.5002 262.741 94.5002C263.502 94.5002 264.124 94.7334 264.56 95.1687C264.979 95.604 265.213 96.2415 265.213 97.0345C265.213 97.8118 264.995 98.3872 264.575 98.7914C264.156 99.1646 263.518 99.3666 262.663 99.4133C260.471 99.5066 259.414 100.719 259.414 102.974V108.353Z" fill="#82411E"/>
<path d="M65.2701 140.105C69.5746 132.543 78.8127 130.733 84.3736 140.105" stroke="black" stroke-width="3" stroke-linecap="round"/>
<path d="M130.54 140.105C134.845 132.543 144.083 130.733 149.644 140.105" stroke="black" stroke-width="3" stroke-linecap="round"/>
<path d="M75.6178 162.395C80.4535 162.395 84.3736 159.9 84.3736 156.822C84.3736 153.745 80.4535 151.25 75.6178 151.25C70.7821 151.25 66.8621 153.745 66.8621 156.822C66.8621 159.9 70.7821 162.395 75.6178 162.395Z" fill="#FBADAD"/>
<path d="M140.888 162.176C145.724 162.176 149.644 159.681 149.644 156.604C149.644 153.526 145.724 151.032 140.888 151.032C136.052 151.032 132.132 153.526 132.132 156.604C132.132 159.681 136.052 162.176 140.888 162.176Z" fill="#FBADAD"/>
<path fill-rule="evenodd" clip-rule="evenodd" d="M115.222 154.627C117.767 152.492 119.396 149.624 119.396 147.865C119.396 144.198 117.592 144.649 114.614 145.394C113.052 145.784 111.166 146.255 109.049 146.255C107.03 146.255 105.051 145.827 103.303 145.449C99.7217 144.674 97.1091 144.109 97.1091 147.865C97.1091 149.684 98.8517 152.689 101.547 154.843C103.757 152.164 109.553 148.425 115.222 154.627Z" fill="black"/>
<path d="M101.547 154.843C103.413 156.334 105.735 157.418 108.253 157.418C110.89 157.418 113.314 156.228 115.222 154.627C109.553 148.425 103.757 152.164 101.547 154.843Z" fill="#FBADAD"/>
</g>
<defs>
<clipPath id="clip0_263_3355">
<rect width="277" height="242" fill="white"/>
</clipPath>
</defs>
</svg>
